<?xml version="1.0" encoding="UTF-8"?>
<svg version="1.1" xmlns="http://www.w3.org/2000/svg" width="100" height="100">
<path d="M0 0 C33 0 66 0 100 0 C100 33 100 66 100 100 C67 100 34 100 0 100 C0 67 0 34 0 0 Z " fill="#000001" transform="translate(0,0)"/>
<path d="M0 0 C11.42197618 1.94072516 20.3944413 8.97076353 27.3125 18.02734375 C35.2338208 29.48692291 40.58793073 42.48814435 46.16943359 55.18652344 C51.48699743 67.27027282 56.65856706 77.43022092 66 87 C65.01 87.495 65.01 87.495 64 88 C47.2732639 77.57248154 38.43676962 62.68124967 30.3515625 45.24609375 C30.02977524 44.55268387 29.70798798 43.85927399 29.37644958 43.14485168 C27.76540897 39.66015216 26.17573872 36.16758763 24.61645508 32.65942383 C19.21748458 20.6582331 13.41904153 9.27289616 1.87109375 2.171875 C1.25363281 1.78515625 0.63617187 1.3984375 0 1 C0 0.67 0 0.34 0 0 Z " fill="#C9BAE9" transform="translate(21,7)"/>
<path d="M0 0 C2.08714518 2.72981137 3.79979497 5.31523022 5.25 8.4375 C5.78367187 9.54931641 5.78367187 9.54931641 6.328125 10.68359375 C7.67676571 15.33326782 5.54844456 19.30383333 3.53125 23.484375 C3.04269531 24.50144531 2.55414063 25.51851562 2.05078125 26.56640625 C1.28314453 28.14228516 1.28314453 28.14228516 0.5 29.75 C-0.26763672 31.34908203 -0.26763672 31.34908203 -1.05078125 32.98046875 C-4.85040794 40.85040794 -4.85040794 40.85040794 -6 42 C-8.01964199 42.07244053 -10.04167124 42.08377188 -12.0625 42.0625 C-13.16722656 42.05347656 -14.27195312 42.04445312 -15.41015625 42.03515625 C-16.69212891 42.01775391 -16.69212891 42.01775391 -18 42 C-15.30797874 32.93376748 -11.26072847 24.50710653 -7.3125 15.9375 C-6.60309389 14.388865 -5.89410588 12.84003839 -5.18554688 11.29101562 C-3.46184723 7.52511586 -1.73249815 3.76185963 0 0 Z " fill="#CABBEB" transform="translate(42,40)"/>
</svg>
